<svg width="472" height="231" viewBox="0 0 472 231" fill="none" xmlns="http://www.w3.org/2000/svg">
<path d="M448.826 230.659C442.157 230.659 436.774 225.29 432.677 214.552C428.579 203.813 426.53 189.746 426.53 172.35V163.974C426.53 162.9 426.651 162.041 426.892 161.397C427.213 160.538 427.575 160.108 427.976 160.108H438.944C439.345 160.108 439.667 160.538 439.908 161.397C440.229 162.041 440.39 162.9 440.39 163.974V170.417C440.39 178.793 441.153 185.558 442.68 190.713C444.287 195.867 446.335 198.444 448.826 198.444C451.317 198.444 453.366 196.082 454.973 191.357C456.58 186.417 457.383 179.974 457.383 172.028C457.383 166.444 456.941 161.612 456.057 157.531C455.174 153.451 453.928 149.585 452.321 145.934C450.714 142.283 448.143 137.021 444.608 130.148C440.591 122.417 437.337 115.544 434.846 109.531C432.436 103.517 430.387 96.3227 428.699 87.9468C427.093 79.3562 426.289 69.4769 426.289 58.3091C426.289 40.4835 428.298 26.3089 432.315 15.7853C436.332 5.26177 441.635 0 448.224 0C454.892 0 460.276 5.58392 464.373 16.7518C468.471 27.7049 470.52 42.309 470.52 60.5641V68.2957C470.52 69.3695 470.359 70.336 470.038 71.195C469.797 71.8393 469.475 72.1615 469.073 72.1615H458.227C457.825 72.1615 457.463 71.8393 457.142 71.195C456.901 70.336 456.781 69.3695 456.781 68.2957V59.9198C456.781 51.5439 455.977 44.8862 454.37 39.9465C452.844 34.7921 450.795 32.2149 448.224 32.2149C445.813 32.2149 443.845 34.5774 442.318 39.3022C440.792 43.8123 440.028 50.1479 440.028 58.3091C440.028 66.0406 440.832 72.591 442.439 77.9602C444.126 83.3293 447.38 90.7388 452.201 100.189C457.102 109.853 460.798 117.799 463.289 124.028C465.779 130.041 467.708 136.699 469.073 144.001C470.439 151.303 471.122 160.001 471.122 170.095C471.122 188.35 469.073 203.062 464.976 214.229C460.878 225.183 455.495 230.659 448.826 230.659Z" fill="#B10200"/>
<path d="M424.647 30.9195C424.647 31.9933 424.487 32.9597 424.165 33.8188C423.924 34.4631 423.603 34.7853 423.201 34.7853H397.169C396.767 34.7853 396.566 35.3222 396.566 36.396V97.2823C396.566 98.3561 396.767 98.893 397.169 98.893H412.595C412.997 98.893 413.318 99.3226 413.559 100.182C413.881 100.826 414.041 101.685 414.041 102.759V127.564C414.041 128.638 413.881 129.605 413.559 130.464C413.318 131.108 412.997 131.43 412.595 131.43H397.169C396.767 131.43 396.566 131.967 396.566 133.041V194.249C396.566 195.323 396.767 195.86 397.169 195.86H423.201C423.603 195.86 423.924 196.29 424.165 197.149C424.487 197.793 424.647 198.652 424.647 199.726V224.209C424.647 225.283 424.487 226.249 424.165 227.109C423.924 227.753 423.603 228.075 423.201 228.075H384.032C383.63 228.075 383.269 227.753 382.947 227.109C382.706 226.249 382.586 225.283 382.586 224.209V6.43611C382.586 5.36228 382.706 4.50322 382.947 3.85891C383.269 2.99985 383.63 2.57031 384.032 2.57031H423.201C423.603 2.57031 423.924 2.99985 424.165 3.85891C424.487 4.50322 424.647 5.36228 424.647 6.43611V30.9195Z" fill="#B10200"/>
<path d="M378.303 30.9195C378.303 31.9933 378.143 32.9597 377.821 33.8188C377.58 34.4631 377.259 34.7853 376.857 34.7853H350.825C350.423 34.7853 350.222 35.3222 350.222 36.396V97.2823C350.222 98.3561 350.423 98.893 350.825 98.893H366.252C366.653 98.893 366.975 99.3226 367.216 100.182C367.537 100.826 367.698 101.685 367.698 102.759V127.564C367.698 128.638 367.537 129.605 367.216 130.464C366.975 131.108 366.653 131.43 366.252 131.43H350.825C350.423 131.43 350.222 131.967 350.222 133.041V194.249C350.222 195.323 350.423 195.86 350.825 195.86H376.857C377.259 195.86 377.58 196.29 377.821 197.149C378.143 197.793 378.303 198.652 378.303 199.726V224.209C378.303 225.283 378.143 226.249 377.821 227.109C377.58 227.753 377.259 228.075 376.857 228.075H337.688C337.287 228.075 336.925 227.753 336.604 227.109C336.363 226.249 336.242 225.283 336.242 224.209V6.43611C336.242 5.36228 336.363 4.50322 336.604 3.85891C336.925 2.99985 337.287 2.57031 337.688 2.57031H376.857C377.259 2.57031 377.58 2.99985 377.821 3.85891C378.143 4.50322 378.303 5.36228 378.303 6.43611V30.9195Z" fill="#B10200"/>
<path d="M331.041 2.57031C331.442 2.57031 331.764 2.99985 332.005 3.85891C332.326 4.50322 332.487 5.36228 332.487 6.43611V30.9195C332.487 31.9933 332.326 32.9597 332.005 33.8188C331.764 34.4631 331.442 34.7853 331.041 34.7853H315.735C315.333 34.7853 315.132 35.3222 315.132 36.396V224.209C315.132 225.283 314.971 226.249 314.65 227.109C314.409 227.753 314.088 228.075 313.686 228.075H302.598C302.196 228.075 301.835 227.753 301.513 227.109C301.272 226.249 301.152 225.283 301.152 224.209V36.396C301.152 35.3222 300.951 34.7853 300.549 34.7853H286.087C285.685 34.7853 285.324 34.4631 285.002 33.8188C284.761 32.9597 284.641 31.9933 284.641 30.9195V6.43611C284.641 5.36228 284.761 4.50322 285.002 3.85891C285.324 2.99985 285.685 2.57031 286.087 2.57031H331.041Z" fill="#B10200"/>
<path d="M282.572 2.57031C282.974 2.57031 283.295 2.99985 283.536 3.85891C283.857 4.50322 284.018 5.36228 284.018 6.43611V30.9195C284.018 31.9933 283.857 32.9597 283.536 33.8188C283.295 34.4631 282.974 34.7853 282.572 34.7853H267.266C266.864 34.7853 266.663 35.3222 266.663 36.396V224.209C266.663 225.283 266.503 226.249 266.181 227.109C265.94 227.753 265.619 228.075 265.217 228.075H254.129C253.728 228.075 253.366 227.753 253.045 227.109C252.804 226.249 252.683 225.283 252.683 224.209V36.396C252.683 35.3222 252.482 34.7853 252.08 34.7853H237.618C237.216 34.7853 236.855 34.4631 236.533 33.8188C236.292 32.9597 236.172 31.9933 236.172 30.9195V6.43611C236.172 5.36228 236.292 4.50322 236.533 3.85891C236.855 2.99985 237.216 2.57031 237.618 2.57031H282.572Z" fill="#B10200"/>
<path d="M219.829 228.075C219.427 228.075 219.066 227.753 218.744 227.109C218.503 226.249 218.383 225.283 218.383 224.209V6.43611C218.383 5.36228 218.503 4.50322 218.744 3.85891C219.066 2.99985 219.427 2.57031 219.829 2.57031H230.917C231.319 2.57031 231.64 2.99985 231.881 3.85891C232.202 4.50322 232.363 5.36228 232.363 6.43611V224.209C232.363 225.283 232.202 226.249 231.881 227.109C231.64 227.753 231.319 228.075 230.917 228.075H219.829Z" fill="#B10200"/>
<path d="M197.4 5.14751C197.802 3.42938 198.404 2.57031 199.208 2.57031H210.296C210.697 2.57031 211.019 2.99985 211.26 3.85891C211.581 4.50322 211.742 5.36228 211.742 6.43611V224.209C211.742 225.283 211.581 226.249 211.26 227.109C211.019 227.753 210.697 228.075 210.296 228.075H199.208C198.806 228.075 198.444 227.753 198.123 227.109C197.882 226.249 197.762 225.283 197.762 224.209V72.1546C197.762 71.2955 197.681 70.866 197.52 70.866C197.36 70.866 197.199 71.1882 197.038 71.8325L186.553 122.732C186.151 124.45 185.79 125.309 185.469 125.309C185.147 125.309 184.786 124.45 184.384 122.732L173.899 71.8325C173.738 71.1882 173.577 70.866 173.417 70.866C173.256 70.866 173.176 71.2955 173.176 72.1546V224.209C173.176 225.283 173.015 226.249 172.693 227.109C172.452 227.753 172.131 228.075 171.729 228.075H160.642C160.24 228.075 159.878 227.753 159.557 227.109C159.316 226.249 159.195 225.283 159.195 224.209V6.43611C159.195 5.36228 159.316 4.50322 159.557 3.85891C159.878 2.99985 160.24 2.57031 160.642 2.57031H171.729C172.533 2.57031 173.135 3.42938 173.537 5.14751L185.228 60.2351C185.469 61.0941 185.71 61.0941 185.951 60.2351L197.4 5.14751Z" fill="#B10200"/>
<path d="M138.58 5.14751C138.981 3.42938 139.584 2.57031 140.387 2.57031H151.475C151.877 2.57031 152.198 2.99985 152.439 3.85891C152.761 4.50322 152.921 5.36228 152.921 6.43611V224.209C152.921 225.283 152.761 226.249 152.439 227.109C152.198 227.753 151.877 228.075 151.475 228.075H140.387C139.986 228.075 139.624 227.753 139.303 227.109C139.062 226.249 138.941 225.283 138.941 224.209V72.1546C138.941 71.2955 138.861 70.866 138.7 70.866C138.539 70.866 138.379 71.1882 138.218 71.8325L127.733 122.732C127.331 124.45 126.97 125.309 126.648 125.309C126.327 125.309 125.965 124.45 125.564 122.732L115.078 71.8325C114.918 71.1882 114.757 70.866 114.596 70.866C114.436 70.866 114.355 71.2955 114.355 72.1546V224.209C114.355 225.283 114.195 226.249 113.873 227.109C113.632 227.753 113.311 228.075 112.909 228.075H101.821C101.42 228.075 101.058 227.753 100.737 227.109C100.496 226.249 100.375 225.283 100.375 224.209V6.43611C100.375 5.36228 100.496 4.50322 100.737 3.85891C101.058 2.99985 101.42 2.57031 101.821 2.57031H112.909C113.712 2.57031 114.315 3.42938 114.717 5.14751L126.407 60.2351C126.648 61.0941 126.889 61.0941 127.13 60.2351L138.58 5.14751Z" fill="#B10200"/>
<path d="M72.0739 230.659C65.1641 230.659 59.5801 225.075 55.3217 213.907C51.1437 202.739 49.0547 187.921 49.0547 169.451V61.2084C49.0547 42.7385 51.1437 27.9196 55.3217 16.7518C59.5801 5.58392 65.1641 0 72.0739 0C78.9837 0 84.5677 5.58392 88.8261 16.7518C93.0845 27.9196 95.2136 42.7385 95.2136 61.2084V169.451C95.2136 187.921 93.0845 202.739 88.8261 213.907C84.5677 225.075 78.9837 230.659 72.0739 230.659ZM72.0739 198.444C74.8057 198.444 77.0152 195.974 78.7025 191.035C80.3897 185.88 81.2334 179.223 81.2334 171.061V59.5977C81.2334 51.4365 80.3897 44.8862 78.7025 39.9465C77.0152 34.7921 74.8057 32.2149 72.0739 32.2149C69.3421 32.2149 67.1326 34.7921 65.4453 39.9465C63.8384 44.8862 63.0349 51.4365 63.0349 59.5977V171.061C63.0349 179.223 63.8384 185.88 65.4453 191.035C67.1326 195.974 69.3421 198.444 72.0739 198.444Z" fill="#B10200"/>
<path d="M22.6576 230.659C15.8282 230.659 10.3245 225.183 6.14649 214.229C2.04883 203.062 0 188.35 0 170.095V60.242C0 41.772 2.04883 27.1679 6.14649 16.4296C10.3245 5.47654 15.8282 0 22.6576 0C29.5674 0 35.1113 5.47654 39.2893 16.4296C43.4673 27.1679 45.5563 41.772 45.5563 60.242V64.1078C45.5563 65.1816 45.3956 66.148 45.0743 67.0071C44.8332 67.8662 44.5118 68.2957 44.1101 68.2957L32.9018 69.5843C31.9376 69.5843 31.4556 68.2957 31.4556 65.7185V57.6648C31.4556 50.1479 30.6521 44.0271 29.0452 39.3022C27.4383 34.5774 25.3091 32.2149 22.6576 32.2149C20.0866 32.2149 17.9976 34.5774 16.3906 39.3022C14.7837 44.0271 13.9803 50.1479 13.9803 57.6648V172.994C13.9803 180.511 14.7837 186.632 16.3906 191.357C17.9976 196.082 20.0866 198.444 22.6576 198.444C25.3091 198.444 27.4383 196.082 29.0452 191.357C30.6521 186.632 31.4556 180.511 31.4556 172.994V164.941C31.4556 163.867 31.5761 163.008 31.8171 162.363C32.1385 161.504 32.5001 161.075 32.9018 161.075L44.1101 162.363C44.5118 162.363 44.8332 162.793 45.0743 163.652C45.3956 164.296 45.5563 165.155 45.5563 166.229V170.095C45.5563 188.35 43.4673 203.062 39.2893 214.229C35.1113 225.183 29.5674 230.659 22.6576 230.659Z" fill="#B10200"/>
</svg>
